<?xml version="1.0" encoding="UTF-8" standalone="no"?><!DOCTYPE svg PUBLIC "-//W3C//DTD SVG 1.1//EN" "http://www.w3.org/Graphics/SVG/1.1/DTD/svg11.dtd"><svg width="100%" height="100%" viewBox="0 0 3684 428" version="1.1" xmlns="http://www.w3.org/2000/svg" xmlns:xlink="http://www.w3.org/1999/xlink" xml:space="preserve" xmlns:serif="http://www.serif.com/" style="fill-rule:evenodd;clip-rule:evenodd;stroke-linejoin:round;stroke-miterlimit:2;"><g><path d="M10.039,417.149c-6.205,-6.212 -6.205,-16.428 -0,-22.641l164.895,-164.894l-75.506,-0c-8.788,-0 -16.02,-7.232 -16.02,-16.02c0,-8.788 7.232,-16.019 16.02,-16.019l114.166,-0c8.788,-0 16.02,7.231 16.02,16.019l-0,114.145c-0,8.788 -7.232,16.019 -16.02,16.019c-8.788,0 -16.019,-7.231 -16.019,-16.019l-0,-75.484l-164.895,164.894c-6.213,6.205 -16.428,6.205 -22.641,0" style="fill:#fffbfb;"/><path d="M32.424,326.799l65.188,-65.189c-25.58,-1.075 -46.04,-22.413 -46.04,-48.016c-0,-26.296 21.582,-47.96 47.877,-48.059l114.145,0c26.364,0 48.059,21.695 48.059,48.059l-0,114.145c-0.099,26.295 -21.763,47.877 -48.059,47.877c-25.603,0 -46.941,-20.46 -48.016,-46.04l-65.189,65.189c33.926,21.249 73.174,32.49 113.205,32.423c117.968,0 213.594,-95.626 213.594,-213.594c0,-117.968 -95.626,-213.594 -213.594,-213.594c-117.968,-0 -213.594,95.626 -213.594,213.594c0,41.587 11.876,80.375 32.424,113.205" style="fill:#fffbfb;fill-rule:nonzero;"/></g><g><path d="M777.566,230.788c0,20.8 -3.133,39.2 -9.4,55.2c-6.266,16 -15,29.4 -26.2,40.2c-11.2,10.8 -24.4,19 -39.6,24.6c-15.2,5.6 -31.733,8.4 -49.6,8.4c-17.866,0 -34.4,-2.8 -49.6,-8.4c-15.2,-5.6 -28.333,-13.8 -39.4,-24.6c-11.066,-10.8 -19.733,-24.2 -26,-40.2c-6.266,-16 -9.4,-34.4 -9.4,-55.2c0,-20.8 3.2,-39.133 9.6,-55c6.4,-15.866 15.2,-29.2 26.4,-40c11.2,-10.8 24.334,-19 39.4,-24.6c15.067,-5.6 31.4,-8.4 49,-8.4c17.6,0 34,2.8 49.2,8.4c15.2,5.6 28.4,13.8 39.6,24.6c11.2,10.8 20,24.134 26.4,40c6.4,15.867 9.6,34.2 9.6,55Zm-64.8,0c0,-25.6 -5.4,-44.866 -16.2,-57.8c-10.8,-12.933 -25.4,-19.4 -43.8,-19.4c-18.133,0 -32.666,6.467 -43.6,19.4c-10.933,12.934 -16.4,32.2 -16.4,57.8c0,25.867 5.4,45.267 16.2,58.2c10.8,12.934 25.4,19.4 43.8,19.4c18.4,0 33,-6.466 43.8,-19.4c10.8,-12.933 16.2,-32.333 16.2,-58.2Z" style="fill:#fff;fill-rule:nonzero;"/><path d="M911.566,358.388c-6.933,0 -13.333,-0.6 -19.2,-1.8c-5.866,-1.2 -11.2,-2.733 -16,-4.6l0,71.6c-2.666,0.8 -6.4,1.6 -11.2,2.4c-4.8,0.8 -10.133,1.2 -16,1.2c-12,0 -20.666,-2 -26,-6c-5.333,-4 -8,-11.6 -8,-22.8l0,-198c0,-6.933 1.467,-12.6 4.4,-17c2.934,-4.4 7.067,-8.333 12.4,-11.8c8,-5.066 18.267,-9.266 30.8,-12.6c12.534,-3.333 26.4,-5 41.6,-5c15.467,0 29.667,1.934 42.6,5.8c12.934,3.867 24.067,9.934 33.4,18.2c9.334,8.267 16.6,18.8 21.8,31.6c5.2,12.8 7.8,28 7.8,45.6c0,16.8 -2.466,31.667 -7.4,44.6c-4.933,12.934 -11.8,23.734 -20.6,32.4c-8.8,8.667 -19.2,15.2 -31.2,19.6c-12,4.4 -25.066,6.6 -39.2,6.6Zm-9.2,-48.4c14.4,0 25.534,-4.533 33.4,-13.6c7.867,-9.066 11.8,-22.8 11.8,-41.2c0,-18.933 -3.8,-32.533 -11.4,-40.8c-7.6,-8.266 -18.2,-12.4 -31.8,-12.4c-6.133,0 -11.466,0.734 -16,2.2c-4.533,1.467 -8.666,3.134 -12.4,5l0,94c3.734,2.134 7.734,3.8 12,5c4.267,1.2 9.067,1.8 14.4,1.8Z" style="fill:#fff;fill-rule:nonzero;"/><path d="M1098.37,281.588c3.734,11.2 10.267,19.134 19.6,23.8c9.334,4.667 20.134,7 32.4,7c11.2,0 21.734,-1.533 31.6,-4.6c9.867,-3.066 17.867,-6.466 24,-10.2c4,2.667 7.334,6.134 10,10.4c2.667,4.267 4,8.934 4,14c0,6.134 -1.866,11.467 -5.6,16c-3.733,4.534 -8.866,8.334 -15.4,11.4c-6.533,3.067 -14.266,5.334 -23.2,6.8c-8.933,1.467 -18.733,2.2 -29.4,2.2c-15.733,0 -30.266,-2.2 -43.6,-6.6c-13.333,-4.4 -24.8,-10.933 -34.4,-19.6c-9.6,-8.666 -17.133,-19.533 -22.6,-32.6c-5.466,-13.066 -8.2,-28.4 -8.2,-46c0,-17.066 2.734,-31.866 8.2,-44.4c5.467,-12.533 12.8,-22.933 22,-31.2c9.2,-8.266 19.734,-14.333 31.6,-18.2c11.867,-3.866 24.067,-5.8 36.6,-5.8c13.6,0 26.067,2.067 37.4,6.2c11.334,4.134 21.067,9.934 29.2,17.4c8.134,7.467 14.467,16.4 19,26.8c4.534,10.4 6.8,21.734 6.8,34c0,8.534 -2.266,14.934 -6.8,19.2c-4.533,4.267 -10.933,7.067 -19.2,8.4l-104,15.6Zm38,-82.4c-11.466,0 -21,3.534 -28.6,10.6c-7.6,7.067 -12.066,17.267 -13.4,30.6l76.4,-12.4c-0.533,-6.933 -3.6,-13.466 -9.2,-19.6c-5.6,-6.133 -14,-9.2 -25.2,-9.2Z" style="fill:#fff;fill-rule:nonzero;"/><path d="M1387.97,229.588c0,-9.333 -2.8,-16.266 -8.4,-20.8c-5.6,-4.533 -13.066,-6.8 -22.4,-6.8c-6.4,0 -12.266,0.8 -17.6,2.4c-5.333,1.6 -10.266,3.6 -14.8,6l0,141.6c-2.666,0.8 -6.4,1.534 -11.2,2.2c-4.8,0.667 -10.133,1 -16,1c-12,0 -20.666,-1.933 -26,-5.8c-5.333,-3.866 -8,-11.4 -8,-22.6l0,-123.6c0,-6.933 1.467,-12.533 4.4,-16.8c2.934,-4.266 7.067,-8.266 12.4,-12c8.534,-6.133 19.534,-11.066 33,-14.8c13.467,-3.733 28.334,-5.6 44.6,-5.6c29.067,0 51.534,6.4 67.4,19.2c15.867,12.8 23.8,31.067 23.8,54.8l0,124c-2.933,0.8 -6.8,1.534 -11.6,2.2c-4.8,0.667 -10.133,1 -16,1c-12,0 -20.6,-1.933 -25.8,-5.8c-5.2,-3.866 -7.8,-11.4 -7.8,-22.6l0,-97.2Z" style="fill:#fff;fill-rule:nonzero;"/><path d="M1714.37,344.788c-3.733,3.2 -8.8,5.8 -15.2,7.8c-6.4,2 -14,3 -22.8,3c-9.066,0 -17.6,-1.466 -25.6,-4.4c-8,-2.933 -14.666,-9.6 -20,-20l-46.4,-89.6c-4.533,-8.533 -8.733,-17.066 -12.6,-25.6c-3.866,-8.533 -7.666,-17.466 -11.4,-26.8l-2.8,0.8c1.334,16 2.134,31.267 2.4,45.8c0.267,14.534 0.4,28.6 0.4,42.2l0,74.4c-2.666,0.534 -6.6,1.134 -11.8,1.8c-5.2,0.667 -10.6,1 -16.2,1c-12,0 -20.4,-2.066 -25.2,-6.2c-4.8,-4.133 -7.2,-11.533 -7.2,-22.2l0,-206c3.2,-4.533 8.334,-8.066 15.4,-10.6c7.067,-2.533 14.6,-3.8 22.6,-3.8c9.334,0 17.934,1.467 25.8,4.4c7.867,2.934 14.467,9.467 19.8,19.6l46.8,90c4.534,8.534 8.734,17.067 12.6,25.6c3.867,8.534 7.667,17.467 11.4,26.8l1.6,-0.4c-1.333,-17.866 -2.066,-34.8 -2.2,-50.8c-0.133,-16 -0.2,-31.333 -0.2,-46l0,-66.4c2.667,-0.533 6.6,-1.2 11.8,-2c5.2,-0.8 10.734,-1.2 16.6,-1.2c12,0 20.4,2.067 25.2,6.2c4.8,4.134 7.2,11.534 7.2,22.2l0,210.4Z" style="fill:#fff;fill-rule:nonzero;"/><path d="M1816.37,281.588c3.734,11.2 10.267,19.134 19.6,23.8c9.334,4.667 20.134,7 32.4,7c11.2,0 21.734,-1.533 31.6,-4.6c9.867,-3.066 17.867,-6.466 24,-10.2c4,2.667 7.334,6.134 10,10.4c2.667,4.267 4,8.934 4,14c0,6.134 -1.866,11.467 -5.6,16c-3.733,4.534 -8.866,8.334 -15.4,11.4c-6.533,3.067 -14.266,5.334 -23.2,6.8c-8.933,1.467 -18.733,2.2 -29.4,2.2c-15.733,0 -30.266,-2.2 -43.6,-6.6c-13.333,-4.4 -24.8,-10.933 -34.4,-19.6c-9.6,-8.666 -17.133,-19.533 -22.6,-32.6c-5.466,-13.066 -8.2,-28.4 -8.2,-46c0,-17.066 2.734,-31.866 8.2,-44.4c5.467,-12.533 12.8,-22.933 22,-31.2c9.2,-8.266 19.734,-14.333 31.6,-18.2c11.867,-3.866 24.067,-5.8 36.6,-5.8c13.6,0 26.067,2.067 37.4,6.2c11.334,4.134 21.067,9.934 29.2,17.4c8.134,7.467 14.467,16.4 19,26.8c4.534,10.4 6.8,21.734 6.8,34c0,8.534 -2.266,14.934 -6.8,19.2c-4.533,4.267 -10.933,7.067 -19.2,8.4l-104,15.6Zm38,-82.4c-11.466,0 -21,3.534 -28.6,10.6c-7.6,7.067 -12.066,17.267 -13.4,30.6l76.4,-12.4c-0.533,-6.933 -3.6,-13.466 -9.2,-19.6c-5.6,-6.133 -14,-9.2 -25.2,-9.2Z" style="fill:#fff;fill-rule:nonzero;"/><path d="M2042.77,288.788c0,7.467 2.4,12.867 7.2,16.2c4.8,3.334 11.467,5 20,5c4,0 8.267,-0.466 12.8,-1.4c4.534,-0.933 8.4,-2.066 11.6,-3.4c2.4,2.667 4.4,5.734 6,9.2c1.6,3.467 2.4,7.467 2.4,12c0,9.334 -3.666,17 -11,23c-7.333,6 -20.066,9 -38.2,9c-22.4,0 -39.866,-5.133 -52.4,-15.4c-12.533,-10.266 -18.8,-27 -18.8,-50.2l0,-179.6c2.934,-0.8 6.8,-1.666 11.6,-2.6c4.8,-0.933 10,-1.4 15.6,-1.4c11.734,0 20.2,2.067 25.4,6.2c5.2,4.134 7.8,11.667 7.8,22.6l0,26l55.2,0c1.334,2.667 2.667,6.067 4,10.2c1.334,4.134 2,8.467 2,13c0,8.534 -1.933,14.667 -5.8,18.4c-3.866,3.734 -8.866,5.6 -15,5.6l-40.4,0l0,77.6Z" style="fill:#fff;fill-rule:nonzero;"/><path d="M2273.17,237.988c-2.4,9.867 -5.066,20 -8,30.4c-2.933,10.4 -5.866,20.534 -8.8,30.4c-2.933,9.867 -5.733,18.934 -8.4,27.2c-2.666,8.267 -4.8,15.067 -6.4,20.4c-7.2,6.4 -18.666,9.6 -34.4,9.6c-9.6,0 -18,-1.333 -25.2,-4c-7.2,-2.666 -12,-6.666 -14.4,-12c-2.933,-6.4 -6.4,-16.533 -10.4,-30.4c-4,-13.866 -7.933,-29.066 -11.8,-45.6c-3.866,-16.533 -7.533,-33.333 -11,-50.4c-3.466,-17.066 -6.266,-32 -8.4,-44.8c3.2,-3.466 7.667,-6.466 13.4,-9c5.734,-2.533 11.934,-3.8 18.6,-3.8c8.534,0 15.467,1.934 20.8,5.8c5.334,3.867 8.667,10.467 10,19.8c2.667,18.667 5,34.667 7,48c2,13.334 3.8,24.667 5.4,34c1.6,9.334 3,16.867 4.2,22.6c1.2,5.734 2.067,10.2 2.6,13.4l1.6,0c1.067,-4.266 2.667,-10.666 4.8,-19.2c2.134,-8.533 4.667,-18.2 7.6,-29c2.934,-10.8 6.067,-22.4 9.4,-34.8c3.334,-12.4 6.6,-24.866 9.8,-37.4c4.534,-2.666 9.267,-4.733 14.2,-6.2c4.934,-1.466 10.867,-2.2 17.8,-2.2c8.534,0 15.8,1.4 21.8,4.2c6,2.8 9.8,7 11.4,12.6c3.467,12 6.8,23.8 10,35.4c3.2,11.6 6.134,22.334 8.8,32.2c2.667,9.867 5,18.667 7,26.4c2,7.734 3.534,13.734 4.6,18l2,0c3.734,-21.066 7.334,-43.133 10.8,-66.2c3.467,-23.066 6.667,-46.466 9.6,-70.2c4.267,-2.4 8.8,-4.2 13.6,-5.4c4.8,-1.2 9.6,-1.8 14.4,-1.8c8.267,0 15.134,1.8 20.6,5.4c5.467,3.6 8.2,9.8 8.2,18.6c0,4 -0.733,10.267 -2.2,18.8c-1.466,8.534 -3.333,18.134 -5.6,28.8c-2.266,10.667 -4.866,21.934 -7.8,33.8c-2.933,11.867 -5.866,23.267 -8.8,34.2c-2.933,10.934 -5.8,20.934 -8.6,30c-2.8,9.067 -5.133,16 -7,20.8c-2.933,2.934 -7.866,5.267 -14.8,7c-6.933,1.734 -14.4,2.6 -22.4,2.6c-20.266,0 -32.133,-4.933 -35.6,-14.8c-1.866,-5.333 -4.133,-11.866 -6.8,-19.6c-2.666,-7.733 -5.4,-16.2 -8.2,-25.4c-2.8,-9.2 -5.533,-18.8 -8.2,-28.8c-2.666,-10 -4.933,-19.8 -6.8,-29.4Z" style="fill:#fff;fill-rule:nonzero;"/><path d="M2644.37,255.988c0,15.734 -2.4,29.934 -7.2,42.6c-4.8,12.667 -11.666,23.4 -20.6,32.2c-8.933,8.8 -19.666,15.6 -32.2,20.4c-12.533,4.8 -26.533,7.2 -42,7.2c-15.466,0 -29.533,-2.333 -42.2,-7c-12.666,-4.666 -23.466,-11.4 -32.4,-20.2c-8.933,-8.8 -15.8,-19.533 -20.6,-32.2c-4.8,-12.666 -7.2,-27 -7.2,-43c0,-15.466 2.467,-29.533 7.4,-42.2c4.934,-12.666 11.867,-23.4 20.8,-32.2c8.934,-8.8 19.734,-15.6 32.4,-20.4c12.667,-4.8 26.6,-7.2 41.8,-7.2c15.2,0 29.067,2.4 41.6,7.2c12.534,4.8 23.267,11.667 32.2,20.6c8.934,8.934 15.867,19.667 20.8,32.2c4.934,12.534 7.4,26.534 7.4,42Zm-102,-54c-12.533,0 -22.266,4.667 -29.2,14c-6.933,9.334 -10.4,22.667 -10.4,40c0,17.867 3.4,31.4 10.2,40.6c6.8,9.2 16.6,13.8 29.4,13.8c12.8,0 22.6,-4.666 29.4,-14c6.8,-9.333 10.2,-22.8 10.2,-40.4c0,-17.066 -3.466,-30.333 -10.4,-39.8c-6.933,-9.466 -16.666,-14.2 -29.2,-14.2Z" style="fill:#fff;fill-rule:nonzero;"/><path d="M2741.97,351.988c-2.666,0.8 -6.4,1.534 -11.2,2.2c-4.8,0.667 -10.133,1 -16,1c-12,0 -20.666,-1.933 -26,-5.8c-5.333,-3.866 -8,-11.4 -8,-22.6l0,-122c0,-7.466 1.867,-13.866 5.6,-19.2c3.734,-5.333 8.934,-10 15.6,-14c8.8,-5.333 19.4,-9.533 31.8,-12.6c12.4,-3.066 25.4,-4.6 39,-4.6c27.734,0 41.6,9.334 41.6,28c0,4.534 -0.666,8.667 -2,12.4c-1.333,3.734 -2.8,6.934 -4.4,9.6c-6.133,-1.333 -13.6,-2 -22.4,-2c-7.733,0 -15.466,0.934 -23.2,2.8c-7.733,1.867 -14.533,4.4 -20.4,7.6l0,139.2Z" style="fill:#fff;fill-rule:nonzero;"/><path d="M2956.77,253.588l69.2,67.2c-1.333,11.2 -4.733,19.8 -10.2,25.8c-5.466,6 -13.266,9 -23.4,9c-7.733,0 -14.533,-1.866 -20.4,-5.6c-5.866,-3.733 -12.4,-9.866 -19.6,-18.4l-47.6,-56.4l0,76.8c-2.666,0.8 -6.4,1.534 -11.2,2.2c-4.8,0.667 -10.133,1 -16,1c-12,0 -20.666,-1.933 -26,-5.8c-5.333,-3.866 -8,-11.4 -8,-22.6l0,-234.8c2.934,-0.8 6.8,-1.6 11.6,-2.4c4.8,-0.8 10.134,-1.2 16,-1.2c12,0 20.6,2 25.8,6c5.2,4 7.8,11.6 7.8,22.8l0,113.2l72.4,-73.6c12.534,0 22.534,2.8 30,8.4c7.467,5.6 11.2,12.534 11.2,20.8c0,7.2 -2.466,13.534 -7.4,19c-4.933,5.467 -12.6,12.734 -23,21.8l-31.2,26.8Z" style="fill:#fff;fill-rule:nonzero;"/><path d="M3178.37,353.188c-10.133,0 -18.2,-3 -24.2,-9c-6,-6 -9,-14.066 -9,-24.2l0,-210.8c2.934,-0.533 7.134,-1.2 12.6,-2c5.467,-0.8 10.867,-1.2 16.2,-1.2c12,0 20.667,2 26,6c5.334,4 8,11.867 8,23.6l0,166.8l96,0c1.6,2.667 3.134,6.134 4.6,10.4c1.467,4.267 2.2,8.934 2.2,14c0,8.8 -1.933,15.4 -5.8,19.8c-3.866,4.4 -9.133,6.6 -15.8,6.6l-110.8,0Z" style="fill:#fff;fill-rule:nonzero;"/><path d="M3405.17,288.788c0,7.467 2.4,12.867 7.2,16.2c4.8,3.334 11.467,5 20,5c4,0 8.267,-0.466 12.8,-1.4c4.534,-0.933 8.4,-2.066 11.6,-3.4c2.4,2.667 4.4,5.734 6,9.2c1.6,3.467 2.4,7.467 2.4,12c0,9.334 -3.666,17 -11,23c-7.333,6 -20.066,9 -38.2,9c-22.4,0 -39.866,-5.133 -52.4,-15.4c-12.533,-10.266 -18.8,-27 -18.8,-50.2l0,-179.6c2.934,-0.8 6.8,-1.666 11.6,-2.6c4.8,-0.933 10,-1.4 15.6,-1.4c11.734,0 20.2,2.067 25.4,6.2c5.2,4.134 7.8,11.667 7.8,22.6l0,26l55.2,0c1.334,2.667 2.667,6.067 4,10.2c1.334,4.134 2,8.467 2,13c0,8.534 -1.933,14.667 -5.8,18.4c-3.866,3.734 -8.866,5.6 -15,5.6l-40.4,0l0,77.6Z" style="fill:#fff;fill-rule:nonzero;"/><path d="M3590.37,153.988c6.134,0 11.934,0.467 17.4,1.4c5.467,0.934 10.467,2.2 15,3.8l0,-67.2c2.934,-0.8 6.8,-1.6 11.6,-2.4c4.8,-0.8 10.134,-1.2 16,-1.2c12,0 20.6,2 25.8,6c5.2,4 7.8,11.6 7.8,22.8l0,194.8c0,6.4 -1.333,11.8 -4,16.2c-2.666,4.4 -6.933,8.467 -12.8,12.2c-7.466,4.534 -17.066,8.667 -28.8,12.4c-11.733,3.734 -25.2,5.6 -40.4,5.6c-33.6,0 -60.066,-8.466 -79.4,-25.4c-19.333,-16.933 -29,-42.333 -29,-76.2c0,-17.6 2.6,-32.8 7.8,-45.6c5.2,-12.8 12.334,-23.466 21.4,-32c9.067,-8.533 19.734,-14.866 32,-19c12.267,-4.133 25.467,-6.2 39.6,-6.2Zm32.8,54c-3.466,-1.6 -7.266,-3 -11.4,-4.2c-4.133,-1.2 -8.466,-1.8 -13,-1.8c-14.4,0 -25.866,4.4 -34.4,13.2c-8.533,8.8 -12.8,22.8 -12.8,42c0,18.4 4.067,31.8 12.2,40.2c8.134,8.4 19.4,12.6 33.8,12.6c5.6,0 10.6,-0.6 15,-1.8c4.4,-1.2 7.934,-2.6 10.6,-4.2l0,-96Z" style="fill:#fff;fill-rule:nonzero;"/></g></svg>